<svg xmlns="http://www.w3.org/2000/svg" width="2574" height="317" viewBox="0 0 2574 317" fill="none">
  <path d="M 294 309 L 299 313 L 306 314 L 300 313 Z
M 291 296 L 290 297 L 290 302 L 291 304 L 291 300 L 290 299 L 291 298 Z
M 317 292 L 319 296 L 319 304 L 317 308 L 311 313 L 308 313 L 311 313 L 317 308 L 319 304 L 319 296 Z
M 48 299 L 50 304 L 50 307 L 51 307 L 54 311 L 58 313 L 252 313 L 254 311 L 257 310 L 261 303 L 261 297 L 259 294 L 259 292 L 258 292 L 255 288 L 253 288 L 252 287 L 59 287 L 58 288 L 56 288 L 52 291 Z
M 299 287 L 301 287 L 302 286 L 307 286 L 308 287 L 310 287 L 308 286 L 301 286 Z
M 98 139 L 271 139 L 269 138 L 113 138 L 112 139 Z
M 2569 84 L 2557 84 L 2556 85 L 2552 85 L 2549 87 L 2546 87 L 2540 91 L 2538 91 L 2537 93 L 2535 93 L 2535 94 L 2528 100 L 2527 99 L 2527 93 L 2526 92 L 2526 85 L 2524 85 L 2523 84 L 2512 84 L 2509 86 L 2509 202 L 2511 204 L 2524 204 L 2527 200 L 2527 131 L 2528 130 L 2528 125 L 2534 114 L 2541 108 L 2555 102 L 2569 101 L 2571 98 L 2571 86 Z
M 2157 84 L 2156 85 L 2156 165 L 2158 167 L 2158 174 L 2160 176 L 2160 180 L 2162 182 L 2162 184 L 2166 190 L 2167 190 L 2168 192 L 2172 195 L 2172 196 L 2178 200 L 2180 200 L 2182 202 L 2184 202 L 2187 204 L 2191 204 L 2194 206 L 2221 206 L 2223 204 L 2228 204 L 2230 202 L 2232 202 L 2234 200 L 2236 200 L 2242 196 L 2242 195 L 2246 192 L 2253 182 L 2253 179 L 2255 177 L 2255 173 L 2257 171 L 2257 161 L 2258 160 L 2258 132 L 2257 131 L 2257 123 L 2258 122 L 2258 86 L 2255 84 L 2243 84 L 2241 86 L 2241 120 L 2242 121 L 2242 134 L 2241 135 L 2241 156 L 2240 157 L 2240 166 L 2238 168 L 2238 172 L 2232 181 L 2224 187 L 2221 187 L 2219 189 L 2211 189 L 2208 191 L 2206 191 L 2203 189 L 2195 189 L 2193 187 L 2190 187 L 2188 185 L 2186 185 L 2185 183 L 2184 183 L 2183 181 L 2179 178 L 2179 175 L 2177 174 L 2177 170 L 2175 168 L 2175 160 L 2173 158 L 2173 85 L 2171 84 Z
M 1408 83 L 1407 84 L 1400 85 L 1398 87 L 1395 87 L 1393 89 L 1391 89 L 1390 91 L 1388 91 L 1385 93 L 1384 95 L 1382 95 L 1379 97 L 1379 98 L 1377 99 L 1374 103 L 1373 103 L 1366 113 L 1366 115 L 1364 117 L 1364 120 L 1362 122 L 1362 127 L 1360 130 L 1360 139 L 1359 140 L 1360 162 L 1362 164 L 1362 168 L 1370 184 L 1373 188 L 1374 188 L 1375 190 L 1379 193 L 1379 194 L 1388 200 L 1390 200 L 1392 202 L 1396 202 L 1397 204 L 1403 204 L 1405 206 L 1432 206 L 1434 204 L 1439 204 L 1441 202 L 1444 202 L 1446 200 L 1448 200 L 1450 198 L 1455 196 L 1456 194 L 1460 192 L 1469 183 L 1469 182 L 1471 181 L 1472 178 L 1475 175 L 1476 171 L 1471 166 L 1468 165 L 1466 163 L 1463 163 L 1463 164 L 1452 173 L 1450 173 L 1449 175 L 1445 175 L 1444 177 L 1438 177 L 1436 179 L 1425 179 L 1423 177 L 1418 177 L 1416 175 L 1414 175 L 1411 173 L 1404 166 L 1404 165 L 1402 164 L 1402 162 L 1400 160 L 1400 158 L 1398 155 L 1398 150 L 1397 148 L 1398 147 L 1405 146 L 1406 145 L 1416 145 L 1417 144 L 1424 144 L 1425 143 L 1435 143 L 1436 142 L 1453 141 L 1454 140 L 1460 140 L 1465 138 L 1469 138 L 1472 136 L 1474 136 L 1476 134 L 1476 124 L 1474 120 L 1474 116 L 1471 111 L 1471 109 L 1467 103 L 1466 103 L 1465 101 L 1457 94 L 1457 93 L 1454 91 L 1452 91 L 1451 89 L 1447 87 L 1445 87 L 1442 85 L 1439 85 L 1434 83 L 1427 83 L 1426 82 L 1414 82 L 1413 83 Z M 1397 127 L 1398 117 L 1400 114 L 1400 112 L 1402 108 L 1404 107 L 1407 103 L 1415 99 L 1425 99 L 1430 101 L 1436 106 L 1438 109 L 1438 111 L 1440 113 L 1440 122 L 1438 124 L 1436 124 L 1435 125 L 1431 125 L 1430 126 L 1421 126 L 1416 128 L 1398 128 Z
M 1094 97 L 1094 98 L 1092 99 L 1087 108 L 1087 115 L 1090 121 L 1093 124 L 1095 124 L 1097 126 L 1108 126 L 1110 124 L 1112 124 L 1116 120 L 1117 116 L 1119 114 L 1119 111 L 1125 104 L 1131 101 L 1141 101 L 1147 104 L 1149 107 L 1151 108 L 1151 111 L 1153 113 L 1153 133 L 1152 134 L 1143 134 L 1141 136 L 1133 136 L 1131 138 L 1124 138 L 1121 140 L 1115 140 L 1113 142 L 1109 142 L 1107 144 L 1104 144 L 1102 146 L 1100 146 L 1099 148 L 1097 148 L 1094 150 L 1094 151 L 1087 157 L 1085 160 L 1085 162 L 1083 164 L 1083 168 L 1081 171 L 1081 179 L 1082 180 L 1083 187 L 1085 189 L 1085 191 L 1091 198 L 1095 200 L 1096 202 L 1099 202 L 1100 204 L 1104 204 L 1106 206 L 1125 206 L 1129 204 L 1134 204 L 1136 202 L 1139 202 L 1140 200 L 1143 200 L 1144 198 L 1146 198 L 1154 192 L 1159 200 L 1163 202 L 1164 204 L 1167 204 L 1169 206 L 1186 206 L 1187 204 L 1191 204 L 1193 202 L 1195 202 L 1201 198 L 1205 194 L 1207 191 L 1207 182 L 1205 181 L 1204 179 L 1198 179 L 1196 181 L 1191 181 L 1189 179 L 1189 176 L 1188 175 L 1188 113 L 1186 109 L 1186 106 L 1184 104 L 1184 101 L 1182 100 L 1182 98 L 1180 95 L 1178 94 L 1178 93 L 1169 87 L 1167 87 L 1164 85 L 1161 85 L 1157 83 L 1151 83 L 1150 82 L 1137 82 L 1136 83 L 1129 83 L 1124 85 L 1120 85 L 1117 87 L 1114 87 L 1112 89 L 1109 89 L 1107 91 L 1104 91 L 1103 93 L 1100 93 L 1099 95 L 1096 97 Z M 1152 149 L 1153 150 L 1153 172 L 1147 177 L 1145 177 L 1144 179 L 1141 179 L 1140 181 L 1133 181 L 1132 182 L 1131 181 L 1125 181 L 1119 174 L 1119 166 L 1121 162 L 1125 159 L 1126 157 L 1128 157 L 1130 155 L 1133 155 L 1136 153 L 1139 153 L 1142 151 L 1148 151 Z
M 649 89 L 647 92 L 648 94 L 648 100 L 651 103 L 654 104 L 657 108 L 659 109 L 659 167 L 661 169 L 661 179 L 663 181 L 663 185 L 665 187 L 665 189 L 669 195 L 674 198 L 675 200 L 677 200 L 678 202 L 681 202 L 683 204 L 687 204 L 690 206 L 706 206 L 710 204 L 714 204 L 716 202 L 719 202 L 721 200 L 723 200 L 725 198 L 727 198 L 728 196 L 733 194 L 734 192 L 738 190 L 739 191 L 739 206 L 741 208 L 747 208 L 749 206 L 754 206 L 756 204 L 760 204 L 762 202 L 766 202 L 769 200 L 774 200 L 776 198 L 783 198 L 787 195 L 787 187 L 786 185 L 782 183 L 777 183 L 776 181 L 772 178 L 772 83 L 770 82 L 762 82 L 761 83 L 747 85 L 742 87 L 737 87 L 734 89 L 726 89 L 724 92 L 725 93 L 725 100 L 727 102 L 732 104 L 737 110 L 737 169 L 731 173 L 728 177 L 725 177 L 724 179 L 720 179 L 718 181 L 709 181 L 707 179 L 704 179 L 698 174 L 698 171 L 696 169 L 696 161 L 695 160 L 695 152 L 696 151 L 696 136 L 695 135 L 695 94 L 694 93 L 694 83 L 693 82 L 685 82 L 684 83 L 670 85 L 665 87 L 659 87 L 656 89 Z
M 2410 82 L 2409 83 L 2406 83 L 2405 84 L 2400 85 L 2394 89 L 2392 89 L 2391 91 L 2389 91 L 2386 93 L 2386 94 L 2384 95 L 2375 104 L 2369 113 L 2369 116 L 2367 118 L 2367 121 L 2365 124 L 2365 129 L 2363 132 L 2363 157 L 2365 159 L 2365 165 L 2367 167 L 2367 171 L 2369 172 L 2369 175 L 2371 176 L 2371 178 L 2375 184 L 2385 194 L 2391 198 L 2393 198 L 2394 200 L 2397 200 L 2398 202 L 2401 202 L 2403 204 L 2408 204 L 2410 206 L 2438 206 L 2440 204 L 2446 204 L 2448 202 L 2451 202 L 2453 200 L 2455 200 L 2464 194 L 2464 193 L 2466 192 L 2466 191 L 2468 190 L 2471 186 L 2472 186 L 2474 182 L 2476 181 L 2476 179 L 2480 175 L 2480 173 L 2478 171 L 2475 171 L 2474 169 L 2472 169 L 2470 167 L 2466 167 L 2462 171 L 2462 172 L 2455 179 L 2454 179 L 2453 181 L 2447 185 L 2445 185 L 2443 187 L 2439 187 L 2437 189 L 2429 189 L 2427 191 L 2421 191 L 2417 189 L 2411 189 L 2409 187 L 2406 187 L 2401 183 L 2399 183 L 2398 181 L 2397 181 L 2396 179 L 2395 179 L 2394 177 L 2393 177 L 2392 175 L 2388 172 L 2388 170 L 2384 165 L 2384 162 L 2382 160 L 2382 153 L 2381 152 L 2381 150 L 2382 149 L 2481 149 L 2483 147 L 2483 130 L 2480 122 L 2480 119 L 2476 111 L 2474 109 L 2474 107 L 2472 106 L 2468 99 L 2467 99 L 2464 95 L 2461 93 L 2459 93 L 2458 91 L 2455 89 L 2453 89 L 2451 87 L 2449 87 L 2446 85 L 2444 85 L 2437 82 L 2430 82 L 2429 81 L 2417 81 L 2416 82 Z M 2381 133 L 2382 132 L 2382 128 L 2384 126 L 2384 123 L 2386 121 L 2386 119 L 2388 118 L 2388 116 L 2390 113 L 2392 112 L 2392 111 L 2394 110 L 2397 106 L 2410 99 L 2414 99 L 2415 98 L 2419 98 L 2420 97 L 2426 97 L 2427 98 L 2436 99 L 2450 106 L 2457 113 L 2461 119 L 2461 121 L 2464 127 L 2464 130 L 2466 133 L 2465 134 L 2382 134 Z
M 2105 89 L 2103 89 L 2101 87 L 2099 87 L 2096 85 L 2094 85 L 2091 83 L 2088 83 L 2087 82 L 2081 82 L 2080 81 L 2069 81 L 2068 82 L 2062 82 L 2061 83 L 2053 85 L 2047 89 L 2045 89 L 2044 91 L 2040 93 L 2036 97 L 2034 95 L 2034 86 L 2031 84 L 2020 84 L 2019 85 L 2017 85 L 2017 249 L 2033 249 L 2034 248 L 2034 199 L 2035 198 L 2035 192 L 2036 191 L 2040 194 L 2041 196 L 2044 198 L 2046 198 L 2047 200 L 2049 200 L 2051 202 L 2054 202 L 2056 204 L 2061 204 L 2063 206 L 2086 206 L 2089 204 L 2094 204 L 2096 202 L 2098 202 L 2100 200 L 2102 200 L 2111 194 L 2111 193 L 2113 192 L 2113 191 L 2115 190 L 2115 189 L 2119 185 L 2124 176 L 2126 174 L 2126 172 L 2128 169 L 2128 166 L 2130 164 L 2130 158 L 2132 155 L 2132 133 L 2130 130 L 2130 124 L 2128 121 L 2128 117 L 2126 115 L 2126 113 L 2124 111 L 2124 109 L 2117 99 L 2113 96 L 2113 95 L 2106 91 Z M 2072 97 L 2087 100 L 2098 106 L 2099 108 L 2100 108 L 2101 110 L 2105 113 L 2107 116 L 2107 118 L 2109 119 L 2109 122 L 2111 124 L 2111 128 L 2113 130 L 2113 142 L 2114 143 L 2114 147 L 2113 148 L 2113 159 L 2111 161 L 2111 165 L 2107 170 L 2107 172 L 2105 173 L 2099 181 L 2093 185 L 2091 185 L 2089 187 L 2086 187 L 2084 189 L 2078 189 L 2077 190 L 2061 189 L 2059 187 L 2056 187 L 2047 181 L 2040 172 L 2036 164 L 2035 156 L 2034 155 L 2034 150 L 2033 149 L 2033 141 L 2034 140 L 2034 136 L 2035 135 L 2035 129 L 2041 114 L 2044 110 L 2051 104 L 2061 99 L 2068 99 Z
M 1822 85 L 1822 137 L 1821 138 L 1821 143 L 1822 144 L 1822 186 L 1821 187 L 1821 190 L 1822 191 L 1822 194 L 1821 196 L 1822 197 L 1822 203 L 1823 204 L 1836 204 L 1838 203 L 1839 201 L 1839 123 L 1841 119 L 1841 116 L 1843 114 L 1843 112 L 1847 106 L 1852 102 L 1858 99 L 1863 99 L 1867 97 L 1873 97 L 1876 99 L 1880 99 L 1884 101 L 1889 106 L 1893 114 L 1893 118 L 1894 119 L 1894 123 L 1895 124 L 1895 202 L 1896 204 L 1910 204 L 1912 202 L 1912 123 L 1914 120 L 1914 117 L 1919 108 L 1923 104 L 1932 99 L 1935 99 L 1939 97 L 1947 97 L 1951 99 L 1954 99 L 1960 103 L 1965 109 L 1965 112 L 1967 114 L 1967 123 L 1968 124 L 1968 156 L 1969 157 L 1969 168 L 1968 169 L 1968 195 L 1969 196 L 1969 203 L 1970 204 L 1983 204 L 1985 202 L 1985 188 L 1986 187 L 1986 180 L 1985 179 L 1985 173 L 1986 172 L 1986 147 L 1985 146 L 1985 121 L 1984 120 L 1984 108 L 1982 106 L 1982 103 L 1980 101 L 1980 99 L 1976 93 L 1975 93 L 1972 89 L 1967 87 L 1963 84 L 1961 84 L 1957 82 L 1951 82 L 1950 81 L 1933 82 L 1932 83 L 1924 85 L 1918 89 L 1918 90 L 1916 91 L 1909 99 L 1908 99 L 1908 101 L 1907 102 L 1906 101 L 1906 99 L 1904 98 L 1902 94 L 1897 89 L 1883 82 L 1877 82 L 1876 81 L 1860 82 L 1848 87 L 1847 89 L 1843 91 L 1840 94 L 1838 89 L 1838 85 L 1836 85 L 1835 84 L 1824 84 Z
M 1712 83 L 1699 89 L 1697 91 L 1695 91 L 1694 93 L 1692 93 L 1691 95 L 1687 97 L 1687 98 L 1680 104 L 1680 106 L 1678 107 L 1676 110 L 1676 112 L 1674 113 L 1674 116 L 1672 118 L 1672 121 L 1670 122 L 1670 128 L 1668 130 L 1668 145 L 1667 146 L 1667 148 L 1668 149 L 1668 159 L 1670 161 L 1670 166 L 1672 168 L 1672 171 L 1674 172 L 1674 175 L 1676 176 L 1676 178 L 1680 184 L 1688 192 L 1692 194 L 1693 196 L 1698 198 L 1700 200 L 1702 200 L 1704 202 L 1708 202 L 1709 204 L 1714 204 L 1717 206 L 1744 206 L 1746 204 L 1752 204 L 1754 202 L 1757 202 L 1759 200 L 1762 200 L 1771 194 L 1771 193 L 1773 192 L 1780 184 L 1781 184 L 1783 180 L 1785 179 L 1785 177 L 1789 171 L 1789 168 L 1791 167 L 1791 164 L 1792 163 L 1793 156 L 1794 155 L 1794 150 L 1795 149 L 1794 133 L 1793 132 L 1793 127 L 1791 123 L 1791 120 L 1789 118 L 1789 116 L 1787 114 L 1787 112 L 1781 103 L 1780 103 L 1779 101 L 1778 101 L 1777 99 L 1773 96 L 1773 95 L 1771 95 L 1770 93 L 1768 93 L 1767 91 L 1765 91 L 1764 89 L 1762 89 L 1760 87 L 1758 87 L 1755 85 L 1753 85 L 1749 83 L 1746 83 L 1745 82 L 1738 82 L 1737 81 L 1726 81 L 1725 82 L 1717 82 L 1716 83 Z M 1720 99 L 1727 99 L 1728 98 L 1742 99 L 1745 101 L 1747 101 L 1754 104 L 1760 108 L 1767 115 L 1770 119 L 1770 121 L 1772 123 L 1772 125 L 1775 131 L 1777 146 L 1776 147 L 1776 153 L 1775 154 L 1774 160 L 1772 163 L 1772 165 L 1770 167 L 1768 172 L 1766 173 L 1766 174 L 1764 175 L 1764 176 L 1762 177 L 1759 181 L 1756 183 L 1754 183 L 1753 185 L 1750 185 L 1749 187 L 1745 187 L 1743 189 L 1735 189 L 1734 190 L 1718 189 L 1716 187 L 1713 187 L 1711 185 L 1709 185 L 1706 183 L 1705 181 L 1703 181 L 1697 176 L 1697 174 L 1691 167 L 1691 165 L 1689 163 L 1689 160 L 1687 158 L 1687 153 L 1686 152 L 1686 148 L 1685 147 L 1685 141 L 1687 136 L 1687 129 L 1689 127 L 1689 124 L 1693 119 L 1693 117 L 1695 116 L 1695 115 L 1697 114 L 1697 113 L 1706 105 Z
M 1582 82 L 1581 83 L 1573 85 L 1570 87 L 1568 87 L 1566 89 L 1564 89 L 1561 91 L 1560 93 L 1558 93 L 1555 95 L 1555 96 L 1553 97 L 1553 98 L 1551 99 L 1548 103 L 1547 103 L 1545 106 L 1545 108 L 1543 109 L 1541 112 L 1541 114 L 1539 116 L 1539 118 L 1537 121 L 1537 124 L 1536 125 L 1536 128 L 1534 133 L 1534 146 L 1533 147 L 1534 148 L 1534 155 L 1535 156 L 1537 167 L 1539 170 L 1539 172 L 1541 174 L 1541 176 L 1547 185 L 1548 185 L 1556 194 L 1565 200 L 1568 200 L 1570 202 L 1573 202 L 1574 204 L 1580 204 L 1582 206 L 1609 206 L 1611 204 L 1617 204 L 1619 202 L 1622 202 L 1624 200 L 1627 200 L 1628 198 L 1630 198 L 1633 196 L 1633 195 L 1635 194 L 1644 185 L 1645 183 L 1646 183 L 1648 178 L 1650 177 L 1650 175 L 1648 173 L 1646 173 L 1644 171 L 1642 171 L 1640 169 L 1638 169 L 1636 167 L 1634 167 L 1633 168 L 1633 170 L 1631 171 L 1626 179 L 1617 185 L 1615 185 L 1613 187 L 1609 187 L 1607 189 L 1599 189 L 1598 190 L 1594 190 L 1593 189 L 1585 189 L 1583 187 L 1579 187 L 1577 185 L 1575 185 L 1573 183 L 1571 183 L 1570 181 L 1569 181 L 1564 176 L 1564 175 L 1560 172 L 1555 162 L 1555 160 L 1553 156 L 1553 149 L 1552 148 L 1552 138 L 1553 137 L 1554 127 L 1558 119 L 1569 107 L 1573 104 L 1585 99 L 1600 98 L 1601 99 L 1608 99 L 1611 101 L 1616 102 L 1621 106 L 1624 107 L 1625 109 L 1626 109 L 1629 113 L 1631 114 L 1631 116 L 1632 116 L 1633 118 L 1637 118 L 1638 116 L 1645 112 L 1648 109 L 1648 107 L 1646 104 L 1637 96 L 1637 95 L 1628 89 L 1626 89 L 1624 87 L 1622 87 L 1617 84 L 1614 84 L 1610 82 L 1601 82 L 1600 81 Z
M 1215 91 L 1214 93 L 1214 99 L 1215 101 L 1225 108 L 1225 110 L 1227 111 L 1227 181 L 1223 187 L 1215 191 L 1215 203 L 1216 204 L 1274 204 L 1275 202 L 1275 192 L 1271 189 L 1269 189 L 1268 187 L 1264 184 L 1264 181 L 1262 177 L 1262 121 L 1264 120 L 1264 119 L 1269 114 L 1270 114 L 1271 112 L 1274 110 L 1276 110 L 1279 108 L 1282 108 L 1283 107 L 1291 107 L 1292 108 L 1296 108 L 1299 110 L 1303 115 L 1303 120 L 1305 122 L 1305 178 L 1303 181 L 1303 184 L 1298 189 L 1296 189 L 1292 192 L 1292 201 L 1294 204 L 1351 204 L 1353 202 L 1353 192 L 1350 189 L 1347 189 L 1345 187 L 1343 187 L 1342 186 L 1342 184 L 1340 182 L 1340 115 L 1338 113 L 1338 106 L 1336 104 L 1336 101 L 1334 100 L 1334 97 L 1333 97 L 1332 95 L 1331 95 L 1330 93 L 1326 90 L 1326 89 L 1317 84 L 1311 83 L 1310 82 L 1291 82 L 1290 83 L 1282 85 L 1276 89 L 1274 89 L 1273 91 L 1271 91 L 1268 93 L 1267 95 L 1265 95 L 1263 97 L 1262 96 L 1262 93 L 1260 90 L 1260 82 L 1259 81 L 1253 81 L 1252 82 L 1237 85 L 1233 87 L 1229 87 L 1226 89 L 1221 89 L 1218 91 Z
M 794 92 L 794 101 L 801 105 L 805 109 L 807 114 L 807 177 L 806 178 L 806 182 L 803 187 L 801 187 L 800 189 L 797 189 L 794 192 L 794 202 L 796 204 L 854 204 L 856 202 L 856 192 L 855 191 L 853 191 L 851 189 L 849 189 L 848 187 L 844 184 L 844 177 L 842 175 L 842 124 L 844 119 L 846 118 L 846 117 L 848 116 L 851 112 L 853 112 L 859 108 L 863 108 L 864 107 L 872 107 L 873 108 L 876 108 L 882 113 L 882 115 L 884 118 L 884 125 L 885 126 L 885 176 L 884 177 L 884 183 L 879 189 L 876 189 L 872 192 L 872 202 L 874 204 L 932 204 L 934 201 L 934 193 L 929 189 L 927 189 L 926 187 L 922 184 L 922 182 L 920 179 L 920 114 L 918 110 L 918 106 L 916 104 L 916 101 L 914 97 L 912 96 L 911 93 L 910 93 L 909 91 L 899 85 L 897 85 L 890 82 L 873 82 L 872 83 L 869 83 L 866 85 L 864 85 L 861 87 L 859 87 L 854 91 L 852 91 L 851 93 L 849 93 L 846 95 L 846 96 L 843 98 L 842 97 L 842 90 L 841 89 L 840 82 L 839 81 L 833 81 L 832 82 L 817 85 L 813 87 L 809 87 L 806 89 L 801 89 L 799 91 L 795 91 Z
M 431 92 L 431 100 L 434 103 L 437 104 L 443 110 L 443 112 L 444 113 L 444 177 L 443 178 L 443 183 L 441 186 L 437 189 L 435 189 L 433 191 L 433 193 L 432 194 L 432 201 L 434 204 L 490 204 L 491 203 L 491 191 L 488 189 L 486 189 L 481 184 L 481 181 L 479 178 L 479 121 L 481 120 L 482 118 L 489 114 L 490 112 L 492 112 L 494 110 L 497 110 L 501 108 L 510 108 L 513 110 L 515 110 L 519 115 L 520 123 L 521 124 L 521 178 L 520 179 L 519 184 L 514 189 L 511 189 L 509 191 L 509 203 L 510 204 L 568 204 L 569 203 L 569 192 L 565 189 L 563 189 L 559 186 L 559 184 L 557 182 L 557 121 L 561 118 L 562 116 L 572 110 L 575 110 L 578 108 L 588 108 L 592 110 L 597 116 L 597 121 L 598 122 L 598 151 L 599 152 L 599 168 L 598 169 L 598 177 L 597 178 L 597 184 L 592 189 L 589 189 L 587 191 L 587 193 L 586 194 L 586 201 L 588 204 L 644 204 L 647 202 L 647 191 L 643 189 L 641 189 L 635 184 L 635 120 L 634 119 L 634 114 L 633 113 L 633 107 L 626 93 L 615 85 L 613 85 L 610 83 L 607 83 L 606 82 L 588 82 L 587 83 L 584 83 L 583 84 L 578 85 L 575 87 L 573 87 L 572 89 L 569 89 L 568 91 L 566 91 L 554 99 L 553 101 L 551 97 L 549 96 L 544 89 L 539 87 L 537 85 L 535 85 L 532 83 L 529 83 L 528 82 L 510 82 L 509 83 L 501 85 L 495 89 L 493 89 L 492 91 L 490 91 L 480 98 L 479 97 L 479 88 L 478 87 L 478 84 L 476 81 L 470 81 L 469 82 L 454 85 L 450 87 L 446 87 L 443 89 L 438 89 L 435 91 L 432 91 Z
M 2319 52 L 2318 53 L 2314 53 L 2313 54 L 2306 54 L 2306 83 L 2305 84 L 2283 84 L 2282 85 L 2279 85 L 2279 99 L 2285 99 L 2286 100 L 2304 100 L 2305 101 L 2305 120 L 2306 121 L 2306 138 L 2305 139 L 2305 144 L 2306 145 L 2306 203 L 2307 204 L 2321 204 L 2323 201 L 2323 101 L 2324 100 L 2343 100 L 2344 99 L 2349 99 L 2351 97 L 2351 88 L 2348 84 L 2324 84 L 2323 83 L 2323 57 L 2322 56 L 2322 54 Z
M 1059 21 L 1056 21 L 1053 23 L 1049 23 L 1046 25 L 1041 25 L 1039 27 L 1034 27 L 1031 29 L 1025 29 L 1023 31 L 1016 31 L 1013 33 L 1012 35 L 1013 36 L 1013 43 L 1023 48 L 1026 52 L 1026 87 L 1025 88 L 1016 84 L 1013 84 L 1012 83 L 1005 83 L 1004 82 L 991 82 L 990 83 L 985 83 L 981 85 L 978 85 L 975 87 L 973 87 L 971 89 L 969 89 L 960 95 L 960 96 L 958 97 L 958 98 L 956 99 L 951 105 L 950 105 L 948 108 L 948 110 L 946 111 L 946 114 L 944 115 L 944 119 L 942 121 L 942 125 L 940 127 L 940 135 L 938 138 L 938 156 L 940 159 L 940 166 L 942 168 L 942 173 L 944 174 L 944 178 L 946 180 L 946 182 L 952 191 L 953 191 L 957 196 L 966 202 L 970 202 L 971 204 L 976 204 L 977 206 L 1001 206 L 1004 204 L 1007 204 L 1009 202 L 1012 202 L 1013 200 L 1016 200 L 1017 198 L 1019 198 L 1022 196 L 1023 194 L 1027 192 L 1028 193 L 1027 195 L 1027 197 L 1028 198 L 1028 207 L 1029 208 L 1035 208 L 1038 206 L 1043 206 L 1045 204 L 1049 204 L 1051 202 L 1055 202 L 1058 200 L 1062 200 L 1064 198 L 1070 198 L 1076 195 L 1076 185 L 1074 183 L 1068 183 L 1066 181 L 1064 181 L 1063 180 L 1062 169 L 1061 168 L 1061 23 Z M 997 100 L 1005 100 L 1006 101 L 1009 101 L 1013 104 L 1015 104 L 1016 106 L 1017 106 L 1018 108 L 1022 111 L 1022 113 L 1026 118 L 1026 170 L 1024 171 L 1024 172 L 1022 173 L 1019 177 L 1016 177 L 1015 179 L 1012 179 L 1011 181 L 996 181 L 995 179 L 992 179 L 991 177 L 989 177 L 984 172 L 983 169 L 981 168 L 981 165 L 979 164 L 979 160 L 977 158 L 977 149 L 975 147 L 975 135 L 977 133 L 977 122 L 979 120 L 979 116 L 981 114 L 981 112 L 983 109 L 988 104 Z
M 17 25 L 15 28 L 15 30 L 13 32 L 13 34 L 11 36 L 11 40 L 9 42 L 9 51 L 7 54 L 7 66 L 5 70 L 5 88 L 4 89 L 4 93 L 3 94 L 3 119 L 2 120 L 2 156 L 3 157 L 3 174 L 4 175 L 4 182 L 5 183 L 5 203 L 7 207 L 7 217 L 9 221 L 9 228 L 11 230 L 11 237 L 13 238 L 13 242 L 15 244 L 15 246 L 17 249 L 18 249 L 21 254 L 26 257 L 27 259 L 35 263 L 41 264 L 42 265 L 46 265 L 47 266 L 55 266 L 56 267 L 61 267 L 62 268 L 74 268 L 75 269 L 82 269 L 83 270 L 109 270 L 114 272 L 245 272 L 246 271 L 258 271 L 259 270 L 285 270 L 286 269 L 292 269 L 293 268 L 305 268 L 306 267 L 321 266 L 326 264 L 330 264 L 341 259 L 345 255 L 346 255 L 349 251 L 350 251 L 352 248 L 352 246 L 354 245 L 354 243 L 356 241 L 356 238 L 358 235 L 358 229 L 360 226 L 360 213 L 362 209 L 362 194 L 364 189 L 364 152 L 365 151 L 365 138 L 366 137 L 366 114 L 364 111 L 364 82 L 362 78 L 362 61 L 360 58 L 360 46 L 358 43 L 358 38 L 356 35 L 356 32 L 354 30 L 354 28 L 349 21 L 345 19 L 344 17 L 338 13 L 336 13 L 334 11 L 330 11 L 327 9 L 320 9 L 316 7 L 304 7 L 303 6 L 295 6 L 294 5 L 277 5 L 276 4 L 258 4 L 257 3 L 230 3 L 229 2 L 138 2 L 137 3 L 134 3 L 133 2 L 132 3 L 126 3 L 125 2 L 123 2 L 122 3 L 102 3 L 101 4 L 89 4 L 88 5 L 73 5 L 72 6 L 65 6 L 64 7 L 53 7 L 49 9 L 41 9 L 39 11 L 35 11 L 33 13 L 30 13 L 29 15 L 27 15 L 26 17 L 24 17 L 24 18 L 21 20 L 19 24 Z M 57 61 L 62 56 L 64 56 L 70 52 L 78 52 L 80 50 L 95 50 L 98 48 L 100 49 L 101 48 L 128 48 L 129 47 L 144 47 L 145 46 L 224 46 L 227 48 L 229 47 L 231 48 L 233 47 L 235 48 L 264 48 L 266 50 L 284 50 L 287 52 L 297 52 L 299 54 L 302 54 L 310 60 L 310 62 L 312 63 L 312 65 L 314 67 L 314 71 L 316 74 L 316 81 L 318 84 L 318 95 L 319 96 L 319 104 L 320 105 L 320 122 L 321 123 L 321 132 L 320 133 L 320 160 L 319 161 L 318 185 L 317 186 L 317 190 L 316 191 L 316 199 L 314 201 L 314 206 L 312 208 L 312 211 L 310 212 L 310 213 L 306 216 L 305 218 L 303 218 L 301 220 L 296 220 L 294 222 L 286 222 L 283 224 L 265 224 L 264 225 L 258 225 L 257 226 L 237 226 L 236 227 L 209 227 L 208 228 L 159 228 L 158 227 L 142 227 L 141 226 L 104 226 L 99 224 L 85 224 L 81 222 L 73 222 L 71 220 L 67 220 L 60 215 L 56 209 L 56 206 L 54 204 L 54 199 L 52 197 L 52 190 L 50 188 L 50 176 L 49 175 L 49 170 L 48 169 L 48 98 L 50 95 L 50 81 L 52 79 L 52 73 L 54 71 L 54 67 L 56 65 Z" fill="#f4f4f4" fill-rule="evenodd"/>
  <path d="M 298 288 L 298 289 L 297 290 L 295 290 L 292 294 L 292 298 L 291 299 L 292 300 L 292 305 L 294 308 L 296 309 L 296 310 L 300 312 L 302 312 L 303 313 L 311 312 L 316 308 L 318 304 L 318 296 L 316 292 L 311 288 L 308 288 L 307 287 Z
M 89 149 L 91 156 L 97 161 L 270 161 L 272 159 L 275 158 L 278 153 L 278 147 L 277 146 L 277 144 L 273 140 L 96 140 L 91 144 L 91 146 Z" fill="#14964f" fill-rule="evenodd"/>
</svg>
